<svg xmlns="http://www.w3.org/2000/svg" width="2489px" height="512px" viewBox="0 0 2489 512" version="1.1"><path d="M561.91275,301.25 C567.746083,301.25 573.308583,300.239583 578.60025,298.21875 C583.891917,296.197917 588.60025,293.375 592.72525,289.75 L592.72525,289.75 L579.78775,277.75 C577.41275,279.666667 574.7565,281.1875 571.819,282.3125 C568.8815,283.4375 565.78775,284 562.53775,284 C558.66275,284 555.03775,283.239583 551.66275,281.71875 C548.28775,280.197917 545.339833,278.125 542.819,275.5 C540.298167,272.875 538.319,269.822917 536.8815,266.34375 C535.444,262.864583 534.72525,259.145833 534.72525,255.1875 C534.72525,251.270833 535.444,247.5625 536.8815,244.0625 C538.319,240.5625 540.298167,237.5 542.819,234.875 C545.339833,232.25 548.28775,230.177083 551.66275,228.65625 C555.03775,227.135417 558.66275,226.375 562.53775,226.375 C565.78775,226.375 568.8815,226.9375 571.819,228.0625 C574.7565,229.1875 577.41275,230.729167 579.78775,232.6875 L579.78775,232.6875 L592.72525,220.625 C588.60025,217.041667 583.891917,214.229167 578.60025,212.1875 C573.308583,210.145833 567.746083,209.125 561.91275,209.125 C557.704417,209.125 553.6315,209.677083 549.694,210.78125 C545.7565,211.885417 542.079417,213.4375 538.66275,215.4375 C535.246083,217.4375 532.1315,219.833333 529.319,222.625 C526.5065,225.416667 524.10025,228.520833 522.10025,231.9375 C520.10025,235.354167 518.548167,239.020833 517.444,242.9375 C516.339833,246.854167 515.78775,250.9375 515.78775,255.1875 C515.78775,259.4375 516.339833,263.53125 517.444,267.46875 C518.548167,271.40625 520.10025,275.072917 522.10025,278.46875 C524.10025,281.864583 526.5065,284.96875 529.319,287.78125 C532.1315,290.59375 535.246083,292.989583 538.66275,294.96875 C542.079417,296.947917 545.746083,298.489583 549.66275,299.59375 C553.579417,300.697917 557.66275,301.25 561.91275,301.25 Z M617.66275,300 L624.47525,280.6875 L661.85025,280.6875 L668.85025,300 L689.10025,300 L655.53775,210.375 L631.78775,210.375 L598.47525,300 L617.66275,300 Z M656.10025,264.9375 L630.03775,264.9375 L642.91275,228.625 L656.10025,264.9375 Z M720.60025,300 L720.60025,267.75 C722.933583,268.166667 725.246083,268.479167 727.53775,268.6875 C729.829417,268.895833 732.03775,269 734.16275,269 L734.16275,269 L735.5065,269 C735.944,269 736.391917,268.979167 736.85025,268.9375 L736.85025,268.9375 L759.78775,300 L782.28775,300 L755.97525,265.3125 C758.891917,264.1875 761.579417,262.78125 764.03775,261.09375 C766.496083,259.40625 768.621083,257.416667 770.41275,255.125 C772.204417,252.833333 773.589833,250.25 774.569,247.375 C775.548167,244.5 776.03775,241.3125 776.03775,237.8125 C776.03775,233.854167 775.214833,230.197917 773.569,226.84375 C771.923167,223.489583 769.735667,220.59375 767.0065,218.15625 C764.277333,215.71875 761.141917,213.8125 757.60025,212.4375 C754.058583,211.0625 750.391917,210.375 746.60025,210.375 L746.60025,210.375 L702.28775,210.375 L702.28775,300 L720.60025,300 Z M733.91275,252.875 C731.579417,252.875 729.28775,252.71875 727.03775,252.40625 C724.78775,252.09375 722.641917,251.708333 720.60025,251.25 L720.60025,251.25 L720.60025,226.375 L741.60025,226.375 C743.933583,226.375 746.058583,226.6875 747.97525,227.3125 C749.891917,227.9375 751.53775,228.78125 752.91275,229.84375 C754.28775,230.90625 755.35025,232.15625 756.10025,233.59375 C756.85025,235.03125 757.22525,236.5625 757.22525,238.1875 C757.22525,241.0625 756.589833,243.447917 755.319,245.34375 C754.048167,247.239583 752.339833,248.739583 750.194,249.84375 C748.048167,250.947917 745.569,251.729167 742.7565,252.1875 C739.944,252.645833 736.996083,252.875 733.91275,252.875 Z M830.78775,300 C835.03775,300 839.141917,299.489583 843.10025,298.46875 C847.058583,297.447917 850.766917,295.979167 854.22525,294.0625 C857.683583,292.145833 860.829417,289.833333 863.66275,287.125 C866.496083,284.416667 868.933583,281.375 870.97525,278 C873.016917,274.625 874.60025,270.958333 875.72525,267 C876.85025,263.041667 877.41275,258.854167 877.41275,254.4375 C877.41275,250.270833 876.860667,246.28125 875.7565,242.46875 C874.652333,238.65625 873.089833,235.125 871.069,231.875 C869.048167,228.625 866.610667,225.677083 863.7565,223.03125 C860.902333,220.385417 857.7565,218.125 854.319,216.25 C850.8815,214.375 847.173167,212.927083 843.194,211.90625 C839.214833,210.885417 835.079417,210.375 830.78775,210.375 L830.78775,210.375 L795.60025,210.375 L795.60025,300 L830.78775,300 Z M827.85025,284.25 L813.78775,284.25 L813.78775,226.125 L827.85025,226.125 C832.22525,226.125 836.308583,226.854167 840.10025,228.3125 C843.891917,229.770833 847.173167,231.770833 849.944,234.3125 C852.714833,236.854167 854.891917,239.854167 856.47525,243.3125 C858.058583,246.770833 858.85025,250.479167 858.85025,254.4375 C858.85025,258.6875 858.069,262.635417 856.5065,266.28125 C854.944,269.927083 852.777333,273.072917 850.0065,275.71875 C847.235667,278.364583 843.954417,280.447917 840.16275,281.96875 C836.371083,283.489583 832.266917,284.25 827.85025,284.25 L827.85025,284.25 Z M912.22525,300 L912.22525,210.375 L893.91275,210.375 L893.91275,300 L912.22525,300 Z M951.16275,300 L951.16275,236.375 L990.85025,300 L1013.22525,300 L1013.22525,210.375 L995.66275,210.375 L995.66275,273.6875 L956.53775,210.375 L933.60025,210.375 L933.60025,300 L951.16275,300 Z M1045.72525,300 L1052.53775,280.6875 L1089.91275,280.6875 L1096.91275,300 L1117.16275,300 L1083.60025,210.375 L1059.85025,210.375 L1026.53775,300 L1045.72525,300 Z M1084.16275,264.9375 L1058.10025,264.9375 L1070.97525,228.625 L1084.16275,264.9375 Z M1194.22525,300 L1194.22525,283.375 L1148.66275,283.375 L1148.66275,210.375 L1130.35025,210.375 L1130.35025,300 L1194.22525,300 Z M1279.66275,301.25 C1285.49608,301.25 1291.05858,300.239583 1296.35025,298.21875 C1301.64192,296.197917 1306.35025,293.375 1310.47525,289.75 L1310.47525,289.75 L1297.53775,277.75 C1295.16275,279.666667 1292.5065,281.1875 1289.569,282.3125 C1286.6315,283.4375 1283.53775,284 1280.28775,284 C1276.41275,284 1272.78775,283.239583 1269.41275,281.71875 C1266.03775,280.197917 1263.08983,278.125 1260.569,275.5 C1258.04817,272.875 1256.069,269.822917 1254.6315,266.34375 C1253.194,262.864583 1252.47525,259.145833 1252.47525,255.1875 C1252.47525,251.270833 1253.194,247.5625 1254.6315,244.0625 C1256.069,240.5625 1258.04817,237.5 1260.569,234.875 C1263.08983,232.25 1266.03775,230.177083 1269.41275,228.65625 C1272.78775,227.135417 1276.41275,226.375 1280.28775,226.375 C1283.53775,226.375 1286.6315,226.9375 1289.569,228.0625 C1292.5065,229.1875 1295.16275,230.729167 1297.53775,232.6875 L1297.53775,232.6875 L1310.47525,220.625 C1306.35025,217.041667 1301.64192,214.229167 1296.35025,212.1875 C1291.05858,210.145833 1285.49608,209.125 1279.66275,209.125 C1275.45442,209.125 1271.3815,209.677083 1267.444,210.78125 C1263.5065,211.885417 1259.82942,213.4375 1256.41275,215.4375 C1252.99608,217.4375 1249.8815,219.833333 1247.069,222.625 C1244.2565,225.416667 1241.85025,228.520833 1239.85025,231.9375 C1237.85025,235.354167 1236.29817,239.020833 1235.194,242.9375 C1234.08983,246.854167 1233.53775,250.9375 1233.53775,255.1875 C1233.53775,259.4375 1234.08983,263.53125 1235.194,267.46875 C1236.29817,271.40625 1237.85025,275.072917 1239.85025,278.46875 C1241.85025,281.864583 1244.2565,284.96875 1247.069,287.78125 C1249.8815,290.59375 1252.99608,292.989583 1256.41275,294.96875 C1259.82942,296.947917 1263.49608,298.489583 1267.41275,299.59375 C1271.32942,300.697917 1275.41275,301.25 1279.66275,301.25 Z M1364.53775,301.25 C1368.78775,301.25 1372.8815,300.697917 1376.819,299.59375 C1380.7565,298.489583 1384.43358,296.947917 1387.85025,294.96875 C1391.26692,292.989583 1394.39192,290.59375 1397.22525,287.78125 C1400.05858,284.96875 1402.48567,281.864583 1404.5065,278.46875 C1406.52733,275.072917 1408.08983,271.40625 1409.194,267.46875 C1410.29817,263.53125 1410.85025,259.4375 1410.85025,255.1875 C1410.85025,250.9375 1410.29817,246.84375 1409.194,242.90625 C1408.08983,238.96875 1406.52733,235.291667 1404.5065,231.875 C1402.48567,228.458333 1400.05858,225.354167 1397.22525,222.5625 C1394.39192,219.770833 1391.26692,217.375 1387.85025,215.375 C1384.43358,213.375 1380.7565,211.833333 1376.819,210.75 C1372.8815,209.666667 1368.78775,209.125 1364.53775,209.125 C1360.32942,209.125 1356.2565,209.666667 1352.319,210.75 C1348.3815,211.833333 1344.694,213.375 1341.2565,215.375 C1337.819,217.375 1334.68358,219.770833 1331.85025,222.5625 C1329.01692,225.354167 1326.58983,228.458333 1324.569,231.875 C1322.54817,235.291667 1320.97525,238.96875 1319.85025,242.90625 C1318.72525,246.84375 1318.16275,250.9375 1318.16275,255.1875 C1318.16275,259.4375 1318.72525,263.53125 1319.85025,267.46875 C1320.97525,271.40625 1322.54817,275.072917 1324.569,278.46875 C1326.58983,281.864583 1329.01692,284.96875 1331.85025,287.78125 C1334.68358,290.59375 1337.819,292.989583 1341.2565,294.96875 C1344.694,296.947917 1348.37108,298.489583 1352.28775,299.59375 C1356.20442,300.697917 1360.28775,301.25 1364.53775,301.25 Z M1364.53775,284 C1360.66275,284 1357.05858,283.239583 1353.72525,281.71875 C1350.39192,280.197917 1347.48567,278.125 1345.0065,275.5 C1342.52733,272.875 1340.58983,269.822917 1339.194,266.34375 C1337.79817,262.864583 1337.10025,259.145833 1337.10025,255.1875 C1337.10025,251.229167 1337.79817,247.5 1339.194,244 C1340.58983,240.5 1342.52733,237.447917 1345.0065,234.84375 C1347.48567,232.239583 1350.39192,230.177083 1353.72525,228.65625 C1357.05858,227.135417 1360.66275,226.375 1364.53775,226.375 C1368.41275,226.375 1372.02733,227.135417 1375.3815,228.65625 C1378.73567,230.177083 1381.6315,232.239583 1384.069,234.84375 C1386.5065,237.447917 1388.42317,240.5 1389.819,244 C1391.21483,247.5 1391.91275,251.229167 1391.91275,255.1875 C1391.91275,259.145833 1391.21483,262.864583 1389.819,266.34375 C1388.42317,269.822917 1386.5065,272.875 1384.069,275.5 C1381.6315,278.125 1378.73567,280.197917 1375.3815,281.71875 C1372.02733,283.239583 1368.41275,284 1364.53775,284 Z M1442.85025,300 L1447.35025,232.75 L1468.72525,290.625 L1488.91275,290.625 L1510.22525,232.75 L1514.78775,300 L1533.97525,300 L1526.91275,210.375 L1500.72525,210.375 L1478.97525,269.75 L1457.53775,210.375 L1431.35025,210.375 L1424.28775,300 L1442.85025,300 Z M1570.60025,300 L1570.60025,269.25 L1591.72525,269.25 C1596.51692,269.25 1600.85025,268.479167 1604.72525,266.9375 C1608.60025,265.395833 1611.89192,263.3125 1614.60025,260.6875 C1617.30858,258.0625 1619.40233,254.979167 1620.8815,251.4375 C1622.36067,247.895833 1623.10025,244.125 1623.10025,240.125 C1623.10025,235.958333 1622.36067,232.0625 1620.8815,228.4375 C1619.40233,224.8125 1617.29817,221.666667 1614.569,219 C1611.83983,216.333333 1608.53775,214.229167 1604.66275,212.6875 C1600.78775,211.145833 1596.47525,210.375 1591.72525,210.375 L1591.72525,210.375 L1552.28775,210.375 L1552.28775,300 L1570.60025,300 Z M1589.91275,253.25 L1570.60025,253.25 L1570.60025,226.375 L1589.91275,226.375 C1592.20442,226.375 1594.23567,226.75 1596.0065,227.5 C1597.77733,228.25 1599.27733,229.260417 1600.5065,230.53125 C1601.73567,231.802083 1602.67317,233.270833 1603.319,234.9375 C1603.96483,236.604167 1604.28775,238.333333 1604.28775,240.125 C1604.28775,241.875 1603.95442,243.541667 1603.28775,245.125 C1602.62108,246.708333 1601.66275,248.104167 1600.41275,249.3125 C1599.16275,250.520833 1597.65233,251.479167 1595.8815,252.1875 C1594.11067,252.895833 1592.12108,253.25 1589.91275,253.25 L1589.91275,253.25 Z M1680.22525,301.25 C1684.47525,301.25 1688.569,300.697917 1692.5065,299.59375 C1696.444,298.489583 1700.12108,296.947917 1703.53775,294.96875 C1706.95442,292.989583 1710.07942,290.59375 1712.91275,287.78125 C1715.74608,284.96875 1718.17317,281.864583 1720.194,278.46875 C1722.21483,275.072917 1723.77733,271.40625 1724.8815,267.46875 C1725.98567,263.53125 1726.53775,259.4375 1726.53775,255.1875 C1726.53775,250.9375 1725.98567,246.84375 1724.8815,242.90625 C1723.77733,238.96875 1722.21483,235.291667 1720.194,231.875 C1718.17317,228.458333 1715.74608,225.354167 1712.91275,222.5625 C1710.07942,219.770833 1706.95442,217.375 1703.53775,215.375 C1700.12108,213.375 1696.444,211.833333 1692.5065,210.75 C1688.569,209.666667 1684.47525,209.125 1680.22525,209.125 C1676.01692,209.125 1671.944,209.666667 1668.0065,210.75 C1664.069,211.833333 1660.3815,213.375 1656.944,215.375 C1653.5065,217.375 1650.37108,219.770833 1647.53775,222.5625 C1644.70442,225.354167 1642.27733,228.458333 1640.2565,231.875 C1638.23567,235.291667 1636.66275,238.96875 1635.53775,242.90625 C1634.41275,246.84375 1633.85025,250.9375 1633.85025,255.1875 C1633.85025,259.4375 1634.41275,263.53125 1635.53775,267.46875 C1636.66275,271.40625 1638.23567,275.072917 1640.2565,278.46875 C1642.27733,281.864583 1644.70442,284.96875 1647.53775,287.78125 C1650.37108,290.59375 1653.5065,292.989583 1656.944,294.96875 C1660.3815,296.947917 1664.05858,298.489583 1667.97525,299.59375 C1671.89192,300.697917 1675.97525,301.25 1680.22525,301.25 Z M1680.22525,284 C1676.35025,284 1672.74608,283.239583 1669.41275,281.71875 C1666.07942,280.197917 1663.17317,278.125 1660.694,275.5 C1658.21483,272.875 1656.27733,269.822917 1654.8815,266.34375 C1653.48567,262.864583 1652.78775,259.145833 1652.78775,255.1875 C1652.78775,251.229167 1653.48567,247.5 1654.8815,244 C1656.27733,240.5 1658.21483,237.447917 1660.694,234.84375 C1663.17317,232.239583 1666.07942,230.177083 1669.41275,228.65625 C1672.74608,227.135417 1676.35025,226.375 1680.22525,226.375 C1684.10025,226.375 1687.71483,227.135417 1691.069,228.65625 C1694.42317,230.177083 1697.319,232.239583 1699.7565,234.84375 C1702.194,237.447917 1704.11067,240.5 1705.5065,244 C1706.90233,247.5 1707.60025,251.229167 1707.60025,255.1875 C1707.60025,259.145833 1706.90233,262.864583 1705.5065,266.34375 C1704.11067,269.822917 1702.194,272.875 1699.7565,275.5 C1697.319,278.125 1694.42317,280.197917 1691.069,281.71875 C1687.71483,283.239583 1684.10025,284 1680.22525,284 Z M1760.60025,300 L1760.60025,236.375 L1800.28775,300 L1822.66275,300 L1822.66275,210.375 L1805.10025,210.375 L1805.10025,273.6875 L1765.97525,210.375 L1743.03775,210.375 L1743.03775,300 L1760.60025,300 Z M1912.03775,300 L1912.03775,284 L1862.35025,284 L1862.35025,263.125 L1892.66275,263.125 L1892.66275,247.125 L1862.35025,247.125 L1862.35025,226.375 L1909.60025,226.375 L1909.60025,210.375 L1844.03775,210.375 L1844.03775,300 L1912.03775,300 Z M1945.35025,300 L1945.35025,236.375 L1985.03775,300 L2007.41275,300 L2007.41275,210.375 L1989.85025,210.375 L1989.85025,273.6875 L1950.72525,210.375 L1927.78775,210.375 L1927.78775,300 L1945.35025,300 Z M2069.10025,300 L2069.10025,226.375 L2097.41275,226.375 L2097.41275,210.375 L2022.53775,210.375 L2022.53775,226.375 L2050.78775,226.375 L2050.78775,300 L2069.10025,300 Z M2143.91275,301.25 C2148.95442,301.25 2153.60025,300.572917 2157.85025,299.21875 C2162.10025,297.864583 2165.7565,295.979167 2168.819,293.5625 C2171.8815,291.145833 2174.27733,288.260417 2176.0065,284.90625 C2177.73567,281.552083 2178.60025,277.875 2178.60025,273.875 C2178.60025,270 2177.86067,266.65625 2176.3815,263.84375 C2174.90233,261.03125 2172.86067,258.583333 2170.2565,256.5 C2167.65233,254.416667 2164.54817,252.635417 2160.944,251.15625 C2157.33983,249.677083 2153.41275,248.333333 2149.16275,247.125 C2145.45442,246.083333 2142.29817,245.125 2139.694,244.25 C2137.08983,243.375 2134.96483,242.458333 2133.319,241.5 C2131.67317,240.541667 2130.46483,239.489583 2129.694,238.34375 C2128.92317,237.197917 2128.53775,235.8125 2128.53775,234.1875 C2128.53775,232.604167 2128.98567,231.229167 2129.8815,230.0625 C2130.77733,228.895833 2131.97525,227.927083 2133.47525,227.15625 C2134.97525,226.385417 2136.71483,225.8125 2138.694,225.4375 C2140.67317,225.0625 2142.74608,224.875 2144.91275,224.875 C2146.91275,224.875 2148.97525,225.052083 2151.10025,225.40625 C2153.22525,225.760417 2155.26692,226.1875 2157.22525,226.6875 C2159.18358,227.1875 2160.99608,227.739583 2162.66275,228.34375 C2164.32942,228.947917 2165.70442,229.5 2166.78775,230 L2166.78775,230 L2167.72525,230.375 L2177.03775,216.6875 L2173.35025,215.125 C2171.47525,214.375 2169.46483,213.645833 2167.319,212.9375 C2165.17317,212.229167 2162.87108,211.59375 2160.41275,211.03125 C2157.95442,210.46875 2155.32942,210.010417 2152.53775,209.65625 C2149.74608,209.302083 2146.78775,209.125 2143.66275,209.125 C2140.49608,209.125 2137.49608,209.395833 2134.66275,209.9375 C2131.82942,210.479167 2129.194,211.25 2126.7565,212.25 C2124.319,213.25 2122.11067,214.4375 2120.1315,215.8125 C2118.15233,217.1875 2116.41275,218.708333 2114.91275,220.375 C2113.03775,222.5 2111.60025,224.8125 2110.60025,227.3125 C2109.60025,229.8125 2109.10025,232.375 2109.10025,235 C2109.10025,237.541667 2109.37108,239.833333 2109.91275,241.875 C2110.45442,243.916667 2111.22525,245.8125 2112.22525,247.5625 C2113.30858,249.479167 2114.68358,251.1875 2116.35025,252.6875 C2118.01692,254.1875 2119.93358,255.552083 2122.10025,256.78125 C2124.26692,258.010417 2126.694,259.114583 2129.3815,260.09375 C2132.069,261.072917 2134.99608,262 2138.16275,262.875 C2141.57942,263.791667 2144.55858,264.666667 2147.10025,265.5 C2149.64192,266.333333 2151.7565,267.239583 2153.444,268.21875 C2155.1315,269.197917 2156.39192,270.3125 2157.22525,271.5625 C2158.05858,272.8125 2158.47525,274.3125 2158.47525,276.0625 C2158.47525,277.3125 2158.194,278.5 2157.6315,279.625 C2157.069,280.75 2156.16275,281.75 2154.91275,282.625 C2153.66275,283.5 2152.03775,284.197917 2150.03775,284.71875 C2148.03775,285.239583 2145.62108,285.5 2142.78775,285.5 C2140.37108,285.5 2138.03775,285.291667 2135.78775,284.875 C2133.53775,284.458333 2131.39192,283.916667 2129.35025,283.25 C2127.30858,282.583333 2125.39192,281.822917 2123.60025,280.96875 C2121.80858,280.114583 2120.16275,279.25 2118.66275,278.375 L2118.66275,278.375 L2115.35025,276.4375 L2106.16275,290.375 L2111.28775,293.375 C2113.07942,294.375 2115.15233,295.34375 2117.5065,296.28125 C2119.86067,297.21875 2122.43358,298.0625 2125.22525,298.8125 C2128.01692,299.5625 2130.98567,300.15625 2134.1315,300.59375 C2137.27733,301.03125 2140.53775,301.25 2143.91275,301.25 Z M2224.30875,300 L2234.67675,275.424 L2286.26075,275.424 L2296.75675,300 L2302.77275,300 L2264.37275,210.4 L2256.69275,210.4 L2218.29275,300 L2224.30875,300 Z M2284.21275,270.56 L2236.72475,270.56 L2260.53275,214.88 L2284.21275,270.56 Z M2324.92475,300 L2324.92475,263.392 L2354.62075,263.392 C2372.28475,263.392 2383.54875,251.744 2383.54875,236.896 C2383.54875,221.92 2372.28475,210.4 2354.62075,210.4 L2319.29275,210.4 L2319.29275,300 L2324.92475,300 Z M2354.36475,258.272 L2324.92475,258.272 L2324.92475,215.52 L2354.36475,215.52 C2369.21275,215.52 2377.91675,225.248 2377.91675,236.896 C2377.91675,248.416 2369.21275,258.272 2354.36475,258.272 Z M2408.38875,300 L2408.38875,210.4 L2402.75675,210.4 L2402.75675,300 L2408.38875,300 Z" fill="#FFFFFF" fill-rule="nonzero"/><path d="M261.906638,270.391919 L318.47518,326.960461 C321.599374,330.084656 321.599374,335.149976 318.47518,338.27417 L261.906638,394.842712 C258.782443,397.966907 253.717123,397.966907 250.592929,394.842712 L194.024387,338.27417 C190.900192,335.149976 190.900192,330.084656 194.024387,326.960461 L250.592929,270.391919 C253.717123,267.267725 258.782443,267.267725 261.906638,270.391919 Z" fill="#FFFFFF"/><path d="M338.27417,194.024387 L394.842712,250.592929 C397.966907,253.717123 397.966907,258.782443 394.842712,261.906638 L338.27417,318.47518 C335.149976,321.599374 330.084656,321.599374 326.960461,318.47518 L270.391919,261.906638 C267.267725,258.782443 267.267725,253.717123 270.391919,250.592929 L326.960461,194.024387 C330.084656,190.900192 335.149976,190.900192 338.27417,194.024387 Z" fill="#FFFFFF"/><path d="M261.906638,117.656854 L318.47518,174.225397 C321.599374,177.349591 321.599374,182.414911 318.47518,185.539105 L261.906638,242.107648 C258.782443,245.231842 253.717123,245.231842 250.592929,242.107648 L194.024387,185.539105 C190.900192,182.414911 190.900192,177.349591 194.024387,174.225397 L250.592929,117.656854 C253.717123,114.53266 258.782443,114.53266 261.906638,117.656854 Z" fill="#FFFFFF"/><path d="M185.539105,194.024387 L242.107648,250.592929 C245.231842,253.717123 245.231842,258.782443 242.107648,261.906638 L185.539105,318.47518 C182.414911,321.599374 177.349591,321.599374 174.225397,318.47518 L117.656854,261.906638 C114.53266,258.782443 114.53266,253.717123 117.656854,250.592929 L174.225397,194.024387 C177.349591,190.900192 182.414911,190.900192 185.539105,194.024387 Z" fill="#FFFFFF"/><path d="M256,64 C362.038672,64 448,149.961328 448,256 C448,362.038672 362.038672,448 256,448 C149.961328,448 64,362.038672 64,256 C64,149.961328 149.961328,64 256,64 Z M256,80 C158.797884,80 80,158.797884 80,256 C80,353.202116 158.797884,432 256,432 C353.202116,432 432,353.202116 432,256 C432,158.797884 353.202116,80 256,80 Z" fill="#FFFFFF"/></svg>
